<svg version="1.2" xmlns="http://www.w3.org/2000/svg" viewBox="0 0 500 500" width="500" height="500">
	<title>Design sem nome</title>
	<defs>
		<clipPath clipPathUnits="userSpaceOnUse" id="cp1">
			<path d="m42.79 277h413.25v199.8h-413.25z"/>
		</clipPath>
		<clipPath clipPathUnits="userSpaceOnUse" id="cp2">
			<path d="m224 397h74v79.8h-74z"/>
		</clipPath>
	</defs>
	<style>
		.s0 { fill: #800000 } 
		.s1 { fill: #d4aa00 } 
		.s2 { fill: #000000 } 
		.s3 { fill: #5c9ad7 } 
		.s4 { fill: none;stroke: #000000;stroke-width: 9.4 } 
		.s5 { fill: #ffc200 } 
		.s6 { fill: #fbbe00 } 
		.s7 { fill: #ffff00 } 
		.s8 { fill: #395723 } 
		.s9 { fill: #ffc000 } 
		.s10 { fill: #ffffff } 
		.s11 { fill: none;stroke: #000000;stroke-width: 4.1 } 
	</style>
	<path fill-rule="evenodd" class="s0" d="m107.4 90.6l0.2 242.9h-56.7l-0.1-242.9z"/>
	<path class="s1" d="m50.8 90.6h56.5l-28.3-69z"/>
	<path class="s2" d="m70.6 42.4h17l-8.5-20.9z"/>
	<path class="s3" d="m413.8 230.6q0 4.1-0.2 8.1-0.2 4.1-0.6 8.1-0.4 4-1 8.1-0.6 4-1.3 7.9-0.8 4-1.8 8-1 3.9-2.1 7.8-1.2 3.9-2.5 7.7-1.4 3.8-2.9 7.5-1.5 3.8-3.3 7.4-1.7 3.7-3.6 7.3-1.8 3.6-3.9 7-2.1 3.5-4.3 6.9-2.2 3.4-4.6 6.6-2.4 3.3-4.9 6.4-2.6 3.2-5.3 6.2-2.7 3-5.5 5.8-2.8 2.9-5.8 5.6-3 2.8-6.1 5.3-3.1 2.6-6.3 5-3.2 2.4-6.6 4.7-3.3 2.3-6.7 4.3-3.5 2.1-7 4-3.5 2-7.2 3.7-3.6 1.7-7.3 3.3-3.7 1.5-7.5 2.9-3.8 1.4-7.6 2.6-3.8 1.1-7.7 2.1-3.9 1-7.8 1.8-4 0.8-7.9 1.4-4 0.6-8 1-4 0.4-8 0.6-4 0.2-8 0.2-4 0-8-0.2-4-0.2-8-0.6-4-0.4-8-1-4-0.6-7.9-1.4-3.9-0.7-7.8-1.7-3.9-1-7.8-2.2-3.8-1.2-7.6-2.5-3.8-1.4-7.5-2.9-3.7-1.6-7.3-3.3-3.6-1.7-7.2-3.7-3.5-1.9-7-3.9-3.4-2.1-6.7-4.4-3.4-2.2-6.6-4.6-3.2-2.5-6.3-5-3.1-2.6-6.1-5.3-3-2.7-5.8-5.6-2.9-2.9-5.5-5.9-2.7-3-5.3-6.1-2.5-3.1-4.9-6.4-2.4-3.3-4.7-6.6-2.2-3.4-4.2-6.9-2.1-3.4-4-7-1.9-3.6-3.6-7.3-1.7-3.6-3.3-7.4-1.5-3.7-2.9-7.5-1.3-3.8-2.5-7.7-1.2-3.9-2.1-7.8-1-4-1.8-7.9-0.8-4-1.4-8-0.6-4-1-8.1-0.4-4-0.6-8.1-0.2-4-0.2-8.1 0-4 0.2-8.1 0.2-4 0.6-8.1 0.4-4 1-8 0.6-4 1.4-8 0.7-4 1.7-7.9 1-3.9 2.2-7.8 1.1-3.9 2.5-7.7 1.3-3.8 2.8-7.6 1.6-3.7 3.3-7.4 1.7-3.7 3.6-7.2 1.9-3.6 3.9-7.1 2.1-3.5 4.3-6.8 2.3-3.4 4.6-6.7 2.4-3.2 5-6.4 2.5-3.1 5.2-6.1 2.7-3 5.5-5.9 2.9-2.9 5.8-5.6 3-2.7 6.1-5.3 3.1-2.6 6.3-5 3.2-2.4 6.6-4.6 3.3-2.3 6.8-4.4 3.4-2.1 6.9-4 3.6-1.9 7.2-3.6 3.6-1.8 7.3-3.3 3.7-1.6 7.5-3 3.8-1.3 7.6-2.5 3.9-1.2 7.8-2.2 3.8-1 7.8-1.7 3.9-0.8 7.9-1.4 3.9-0.6 7.9-1 4-0.4 8-0.6 4-0.2 8.1-0.2 4 0 8 0.2 4 0.1 8 0.5 4 0.4 7.9 1 4 0.6 7.9 1.4 4 0.8 7.9 1.8 3.9 1 7.7 2.1 3.8 1.2 7.6 2.6 3.8 1.3 7.5 2.9 3.7 1.5 7.3 3.3 3.7 1.7 7.2 3.6 3.5 1.9 7 4 3.4 2.1 6.8 4.3 3.3 2.3 6.5 4.7 3.3 2.4 6.4 5 3.1 2.6 6 5.3 3 2.7 5.8 5.6 2.9 2.8 5.6 5.8 2.7 3 5.2 6.2 2.6 3.1 5 6.3 2.4 3.3 4.6 6.7 2.2 3.3 4.3 6.8 2 3.5 3.9 7.1 1.9 3.5 3.7 7.2 1.7 3.7 3.2 7.4 1.5 3.8 2.9 7.6 1.4 3.8 2.5 7.7 1.2 3.9 2.2 7.8 0.9 3.9 1.7 7.9 0.8 4 1.4 8 0.6 4 1 8 0.4 4.1 0.6 8.1 0.2 4.1 0.2 8.1z"/>
	<path class="s2" d="m398.8 327.5c-28.2 50.9-88.7 81.6-149.9 81.8-60.4-0.1-119.7-31.8-148.4-81.7l-50.4 25.1c35 74.2 113.3 116.9 199.9 116.9 87.1 0 166.6-41.6 201.2-116.6z"/>
	<g id="Clip-Path" clip-path="url(#cp1)">
		<g>
			<path class="s4" d="m398.8 327.5c-28.2 50.9-88.7 81.6-149.9 81.8-60.4-0.1-119.7-31.8-148.4-81.7l-50.4 25.1c35 74.2 113.3 116.9 199.9 116.9 87.1 0 166.6-41.6 201.2-116.6z"/>
		</g>
	</g>
	<path class="s5" d="m399.3 327.5c-28.3 50.9-88.7 81.6-149.9 81.8-60.4-0.1-119.8-31.9-148.5-81.7l-50.4 25c35 74.2 113.4 117 199.9 117 87.2-0.1 166.6-41.6 201.2-116.6z"/>
	<path class="s6" d="m244.4 70.6l-14.8 128.2-52.7-98.7 27 110.6-69.2-59.2 49.6 79.8-81.5-25.4 73.5 41.5-55.9 0.2 53.2 13.7 3.7-0.1q0.4-2.9 1.1-5.8 0.6-2.9 1.6-5.8 0.9-2.8 2-5.5 1.2-2.8 2.6-5.4 1.4-2.7 3-5.2 1.6-2.5 3.4-4.9 1.9-2.3 3.9-4.5 2-2.3 4.2-4.3 2.2-2 4.6-3.9 2.4-1.8 4.9-3.4 2.5-1.7 5.2-3.1 2.7-1.4 5.4-2.6 2.8-1.2 5.7-2.2 2.8-0.9 5.8-1.6 2.9-0.8 5.9-1.2 3-0.5 6-0.7 2.6-0.2 5.3-0.2 2.6 0 5.2 0.2 2.6 0.3 5.2 0.6 2.6 0.4 5.2 1 2.6 0.6 5.1 1.4 2.5 0.7 4.9 1.7 2.5 0.9 4.8 2 2.4 1.2 4.7 2.5 2.2 1.2 4.4 2.7 2.2 1.4 4.2 3.1 2.1 1.6 4 3.3 2 1.8 3.7 3.6 1.8 1.9 3.5 3.9 1.6 2.1 3.1 4.2 1.5 2.1 2.8 4.3 1.3 2.3 2.5 4.6l64.4-62.4-74.6 47.3 45.8-78.2-60.4 65.5 30.2-118.2-54.9 105.3zm125.4 155.9l-58.4 14q2.8 5.6 4.5 11.6z"/>
	<path class="s7" d="m318 265.7q0.2 1.7 0.2 3.4 0 1.7 0 3.4-0.1 1.7-0.2 3.4-0.2 1.7-0.4 3.4-0.2 1.7-0.5 3.4-0.3 1.7-0.7 3.4-0.4 1.6-0.9 3.3-0.4 1.6-1 3.2-0.5 1.7-1.2 3.3-0.6 1.6-1.3 3.1-0.7 1.6-1.5 3.1-0.8 1.5-1.7 3-0.9 1.5-1.8 3-0.9 1.4-2 2.8-1 1.4-2 2.7-1.1 1.4-2.3 2.7-1.1 1.3-2.3 2.5-1.2 1.2-2.5 2.4-1.3 1.2-2.6 2.3-1.3 1.1-2.7 2.2-1.4 1-2.8 2-1.4 1-2.9 1.9-1.5 0.9-3 1.7-1.5 0.9-3.1 1.6-1.6 0.8-3.2 1.5-1.6 0.7-3.2 1.3-1.6 0.6-3.3 1.1-1.6 0.6-3.3 1-1.7 0.5-3.4 0.9-1.7 0.3-3.4 0.6-1.8 0.3-3.5 0.5-1.7 0.2-3.5 0.3-1.7 0.2-3.4 0.2-1.8 0-3.5 0-1.8-0.1-3.5-0.2-1.8-0.1-3.5-0.3-1.7-0.2-3.4-0.5-1.8-0.3-3.4-0.7-1.7-0.4-3.4-0.9-1.7-0.4-3.4-1-1.6-0.5-3.2-1.1-1.7-0.6-3.3-1.3-1.5-0.7-3.1-1.5-1.5-0.8-3.1-1.6-1.5-0.9-2.9-1.8-1.5-0.9-2.9-1.9-1.5-1-2.8-2-1.4-1.1-2.7-2.2-1.3-1.1-2.6-2.3-1.2-1.2-2.4-2.4-1.2-1.3-2.4-2.6-1.1-1.3-2.2-2.6-1-1.4-2-2.8-1-1.4-2-2.8-0.9-1.5-1.7-3-0.9-1.5-1.7-3-0.7-1.5-1.4-3.1-0.7-1.5-1.4-3.1-0.6-1.6-1.1-3.3-0.5-1.6-1-3.2-0.5-1.7-0.8-3.4-0.4-1.6-0.7-3.3-0.3-1.7-0.5-3.4-0.2-1.7-0.3-3.4-0.1-1.7-0.2-3.4 0-1.7 0-3.4 0.1-1.8 0.2-3.5 0.2-1.7 0.4-3.4 0.2-1.7 0.5-3.3 0.3-1.7 0.7-3.4 0.4-1.7 0.9-3.3 0.5-1.7 1-3.3 0.6-1.6 1.2-3.2 0.6-1.6 1.3-3.2 0.8-1.5 1.6-3 0.7-1.6 1.6-3.1 0.9-1.5 1.8-2.9 1-1.4 2-2.8 1-1.4 2.1-2.8 1-1.3 2.2-2.6 1.1-1.3 2.3-2.5 1.3-1.3 2.5-2.5 1.3-1.1 2.6-2.2 1.3-1.2 2.7-2.2 1.4-1.1 2.8-2 1.5-1 2.9-1.9 1.5-0.9 3-1.8 1.6-0.8 3.1-1.6 1.6-0.8 3.2-1.4 1.6-0.7 3.2-1.3 1.6-0.7 3.3-1.2 1.7-0.5 3.3-1 1.7-0.4 3.4-0.8 1.7-0.4 3.5-0.7 1.7-0.3 3.4-0.5 1.7-0.2 3.5-0.3 1.7-0.1 3.5-0.1 1.7-0.1 3.5 0 1.7 0 3.4 0.1 1.8 0.2 3.5 0.4 1.7 0.2 3.4 0.5 1.8 0.3 3.5 0.7 1.7 0.3 3.3 0.8 1.7 0.5 3.4 1 1.6 0.5 3.3 1.2 1.6 0.6 3.2 1.3 1.6 0.7 3.1 1.5 1.6 0.7 3.1 1.6 1.5 0.8 3 1.7 1.4 1 2.9 1.9 1.4 1 2.7 2.1 1.4 1 2.7 2.2 1.3 1.1 2.6 2.3 1.3 1.2 2.5 2.4 1.1 1.2 2.3 2.5 1.1 1.3 2.2 2.7 1 1.3 2 2.7 1 1.4 2 2.9 0.9 1.4 1.7 2.9 0.9 1.5 1.7 3 0.8 1.6 1.5 3.1 0.6 1.6 1.3 3.2 0.6 1.6 1.1 3.2 0.6 1.6 1 3.3 0.5 1.6 0.9 3.3 0.3 1.7 0.6 3.4 0.3 1.7 0.5 3.4 0.2 1.7 0.3 3.4z"/>
	<path class="s8" d="m166.3 255.4q-4.9 0-9.8 0.5-5 0.5-9.8 1.6-4.9 1-9.6 2.5-4.7 1.6-9.2 3.6-4.5 2-8.7 4.5-4.3 2.4-8.3 5.3-3.9 2.9-7.5 6.2-3.6 3.3-6.9 7 2 5.7 4.5 11.2 2.4 5.6 5.2 10.9 2.8 5.4 6 10.5 3.2 5.1 6.7 10 3.6 4.9 7.5 9.5 3.9 4.6 8.1 8.9 4.2 4.3 8.8 8.3 4.5 3.9 9.3 7.6 4.8 3.6 9.8 6.9 5.1 3.2 10.4 6.1 5.2 2.9 10.7 5.4 5.5 2.5 11.1 4.5 5.6 2.1 11.4 3.7 5.8 1.7 11.7 2.9 5.8 1.2 11.8 2 5.9 0.8 11.9 1.1 4.1-5.6 7.3-11.7 3.2-6.2 5.4-12.7 2.1-6.6 3.2-13.4 1.1-6.8 1.2-13.7 0-2.2-0.1-4.4-0.2-2.2-0.4-4.3-0.2-2.2-0.5-4.4-0.4-2.2-0.8-4.3-0.5-2.2-1-4.3-0.6-2.1-1.2-4.2-0.7-2.1-1.4-4.2-0.8-2-1.7-4.1-0.8-2-1.8-4-1-1.9-2-3.9-1.1-1.9-2.3-3.8-1.1-1.9-2.4-3.7-1.2-1.8-2.6-3.6-1.3-1.7-2.8-3.4-1.4-1.7-2.9-3.3-1.5-1.7-3.1-3.2-1.6-1.6-3.3-3-1.7-1.5-3.4-2.9-1.8-1.4-3.6-2.7-1.8-1.3-3.7-2.5-1.9-1.2-3.8-2.4-2-1.1-4-2.1-1.9-1-4-2-2-0.9-4.1-1.8-2.1-0.8-4.2-1.5-2.2-0.8-4.3-1.4-2.2-0.6-4.4-1.2-2.2-0.5-4.4-0.9-2.2-0.4-4.4-0.8-2.3-0.3-4.5-0.5-2.3-0.2-4.5-0.3-2.3-0.1-4.6-0.1z"/>
	<path class="s8" d="m326.4 237q-2.7 0-5.3 0.1-2.7 0.1-5.4 0.4-2.6 0.2-5.2 0.6-2.7 0.3-5.3 0.8-2.6 0.5-5.2 1.1-2.6 0.6-5.1 1.3-2.6 0.8-5.1 1.6-2.5 0.8-4.9 1.8-2.5 0.9-4.9 2-2.4 1-4.8 2.2-2.3 1.2-4.6 2.4-2.3 1.3-4.5 2.7-2.2 1.4-4.3 2.8-2.2 1.5-4.2 3.1-2.1 1.6-4.1 3.2-1.9 1.7-3.8 3.4-1.9 1.8-3.7 3.6-1.8 1.8-3.5 3.8-1.7 1.9-3.2 3.9-1.6 1.9-3.1 4-1.5 2.1-2.9 4.2-1.3 2.1-2.6 4.3-1.2 2.2-2.4 4.4-1.1 2.2-2.1 4.5-1 2.3-1.9 4.6-0.9 2.4-1.7 4.7-0.8 2.4-1.4 4.8-0.7 2.4-1.2 4.8-0.5 2.4-0.9 4.9-0.4 2.4-0.6 4.9-0.3 2.4-0.4 4.9-0.2 2.5-0.2 5 0.1 7.7 1.4 15.3 1.3 7.6 3.8 15 2.6 7.3 6.3 14.2 3.7 6.9 8.5 13.2 6.4 0.8 12.9 1 3.4 0 6.7-0.2 3.4-0.1 6.8-0.4 3.3-0.3 6.7-0.7 3.3-0.5 6.6-1 3.3-0.6 6.6-1.3 3.3-0.7 6.6-1.6 3.3-0.8 6.5-1.8 3.2-1 6.4-2.1 3.2-1.1 6.3-2.3 3.1-1.3 6.2-2.6 3.1-1.4 6.1-2.9 3.1-1.5 6-3.1 3-1.6 5.9-3.4 2.9-1.7 5.7-3.6 2.8-1.9 5.5-3.8 2.8-2 5.4-4.1 2.7-2.1 5.3-4.3 2.5-2.2 5-4.5 2.5-2.3 4.9-4.7 2.3-2.4 4.6-4.9 2.3-2.5 4.5-5.1 2.2-2.6 4.2-5.3 2.1-2.7 4.1-5.5 1.9-2.7 3.8-5.6 1.8-2.8 3.5-5.8 1.7-2.9 3.4-5.9 1.6-3 3-6 1.5-3.1 2.9-6.2 1.3-3.1 2.6-6.3 1.2-3.1 2.3-6.4 1.1-3.2 2.1-6.4 0.9-3.3 1.7-6.6-3.8-4.1-8-7.8-4.3-3.8-9-7-4.6-3.3-9.7-6.1-5-2.8-10.3-5-5.3-2.3-10.9-4-5.5-1.7-11.2-2.9-5.7-1.2-11.6-1.7-5.8-0.6-11.6-0.6z"/>
	<path class="s9" d="m292.1 306.6q-1.1 0-2.1 0.2-1 0.2-2 0.6-1 0.4-1.9 1-0.9 0.6-1.6 1.3-0.8 0.7-1.3 1.6-0.6 0.8-1 1.8-0.5 0.9-0.7 2-0.2 1-0.2 2 0 0.9 0.2 1.8 0.2 0.9 0.5 1.8 0.3 0.8 0.8 1.6 0.5 0.8 1.1 1.5 0.6 0.7 1.4 1.3 0.7 0.6 1.5 1.1 0.8 0.4 1.7 0.7 0.9 0.3 1.9 0.5v0.1l-18.9 13.4q-0.2 0.1-0.3 0.2-0.6 0.5-0.6 1.3 0 0.4 0.1 0.7 0.2 0.3 0.4 0.6 0.3 0.2 0.6 0.4 0.4 0.1 0.7 0.1 0.8 0 1.3-0.5l0.5-0.3 15.3-10.7-1.5 23.4-4.2 19.4q-0.1 0.3-0.1 0.7 0 0.3 0.1 0.7 0.2 0.3 0.5 0.6 0.3 0.3 0.7 0.4 0.4 0.1 0.8 0.1 0.4 0 0.8-0.1 0.4-0.1 0.7-0.4 0.2-0.3 0.4-0.6 0.2-0.3 0.2-0.7l4.6-19.2h0.1l4.7 19.1q0 0 0 0.1 0 0.3 0.1 0.7 0.2 0.3 0.5 0.6 0.3 0.3 0.7 0.4 0.4 0.1 0.8 0.1 0.4 0 0.8-0.1 0.4-0.1 0.7-0.4 0.3-0.3 0.4-0.6 0.2-0.4 0.2-0.7 0-0.3-0.1-0.5l-4.3-20-2.6-23.4 15.9 11.1 0.8 0.6v-0.1q0.4 0.3 0.9 0.3 0.3 0 0.7-0.2 0.3-0.1 0.5-0.4 0.3-0.2 0.4-0.5 0.2-0.4 0.2-0.7 0-0.7-0.5-1.2l-0.1-0.1q-0.2-0.2-0.4-0.3l-19-13.4q0.9-0.2 1.8-0.5 0.9-0.3 1.7-0.8 0.9-0.4 1.6-1 0.7-0.6 1.3-1.3 0.6-0.7 1.1-1.5 0.5-0.8 0.8-1.6 0.3-0.9 0.5-1.8 0.2-0.9 0.2-1.8 0-1.1-0.2-2.1-0.2-1-0.7-1.9-0.4-1-0.9-1.8-0.6-0.9-1.4-1.6-0.7-0.7-1.6-1.3-0.9-0.6-1.9-1-1-0.4-2-0.6-1-0.2-2.1-0.2z"/>
	<path class="s10" d="m252.3 306.9q-1 0-2.1 0.2-1 0.2-2 0.6-1 0.4-1.9 1-0.8 0.6-1.6 1.3-0.7 0.7-1.3 1.6-0.6 0.8-1 1.8-0.4 0.9-0.6 1.9-0.2 1-0.2 2.1 0 0.9 0.1 1.8 0.2 0.9 0.5 1.8 0.4 0.8 0.8 1.6 0.5 0.8 1.1 1.5 0.7 0.7 1.4 1.3 0.7 0.6 1.5 1 0.9 0.5 1.8 0.8 0.9 0.3 1.8 0.4v0.2l-18.9 13.4q-0.1 0-0.2 0.1l-0.1 0.1q-0.6 0.5-0.6 1.3 0 0.3 0.2 0.7 0.1 0.3 0.4 0.5 0.2 0.3 0.6 0.4 0.3 0.2 0.7 0.2 0.7 0 1.2-0.5l0.5-0.4 15.3-10.6-1.5 23.3-4.2 19.4q-0.1 0.4-0.1 0.7 0 0.4 0.1 0.7 0.2 0.4 0.5 0.7 0.3 0.2 0.7 0.4 0.4 0.1 0.8 0.1 0.4 0 0.8-0.1 0.4-0.2 0.7-0.4 0.3-0.3 0.4-0.6 0.2-0.4 0.2-0.7l4.6-19.2h0.2l4.6 19.1q0 0 0 0 0 0.4 0.2 0.8 0.1 0.3 0.4 0.6 0.3 0.2 0.7 0.4 0.4 0.1 0.8 0.1 0.4 0 0.8-0.1 0.4-0.2 0.7-0.4 0.3-0.3 0.5-0.6 0.1-0.4 0.1-0.8 0-0.2 0-0.4l-4.3-20-2.7-23.4 16 11.1 0.7 0.5q0.4 0.2 0.9 0.2 0.3 0 0.7-0.1 0.3-0.1 0.6-0.4 0.2-0.2 0.4-0.6 0.1-0.3 0.1-0.6 0-0.7-0.5-1.3-0.2-0.2-0.5-0.3l-19-13.5q1-0.1 1.8-0.4 0.9-0.3 1.8-0.8 0.8-0.4 1.5-1 0.7-0.6 1.3-1.3 0.7-0.7 1.1-1.5 0.5-0.8 0.8-1.7 0.4-0.8 0.5-1.7 0.2-0.9 0.2-1.8 0-1.1-0.2-2.1-0.2-1-0.6-1.9-0.4-1-1-1.8-0.6-0.9-1.4-1.6-0.7-0.8-1.6-1.3-0.9-0.6-1.9-1-0.9-0.4-2-0.6-1-0.2-2.1-0.2z"/>
	<path class="s2" d="m212.5 307.1q-1.1 0-2.1 0.2-1 0.2-2 0.6-1 0.4-1.9 1-0.9 0.5-1.6 1.3-0.8 0.7-1.3 1.5-0.6 0.9-1 1.9-0.4 0.9-0.6 1.9-0.2 1-0.2 2 0 1 0.1 1.9 0.2 0.9 0.5 1.7 0.3 0.9 0.8 1.7 0.5 0.8 1.1 1.5 0.6 0.7 1.4 1.3 0.7 0.6 1.5 1 0.9 0.5 1.8 0.8 0.8 0.3 1.8 0.4v0.2l-18.9 13.3q-0.1 0.1-0.3 0.2-0.6 0.6-0.6 1.4 0 0.3 0.2 0.6 0.1 0.4 0.4 0.6 0.2 0.3 0.5 0.4 0.4 0.1 0.7 0.1 0.8 0 1.3-0.5l0.5-0.3 15.3-10.7-1.5 23.4-4.2 19.4q-0.1 0.4-0.1 0.7 0 0.4 0.1 0.7 0.2 0.4 0.5 0.6 0.3 0.3 0.7 0.5 0.4 0.1 0.8 0.1 0.4 0 0.8-0.1 0.4-0.2 0.7-0.4 0.3-0.3 0.4-0.6 0.2-0.4 0.2-0.7l4.6-19.2h0.2l4.6 19.1q0 0 0 0 0 0.4 0.1 0.7 0.2 0.4 0.5 0.7 0.3 0.2 0.7 0.4 0.4 0.1 0.8 0.1 0.4 0 0.8-0.1 0.4-0.2 0.7-0.4 0.3-0.3 0.5-0.7 0.1-0.3 0.1-0.7 0-0.2-0.1-0.5h0.1l-4.4-19.9-2.6-23.4 15.9 11.1h0.1l0.7 0.5q0.4 0.2 0.9 0.2 0.3 0 0.7-0.1 0.3-0.2 0.6-0.4 0.2-0.2 0.3-0.6 0.2-0.3 0.2-0.7 0-0.7-0.5-1.2-0.3-0.2-0.5-0.4l-19-13.4q0.9-0.1 1.8-0.4 0.9-0.3 1.7-0.8 0.9-0.5 1.6-1 0.7-0.6 1.3-1.3 0.6-0.7 1.1-1.5 0.5-0.8 0.8-1.7 0.3-0.8 0.5-1.7 0.2-0.9 0.2-1.9 0-1-0.2-2-0.2-1-0.6-2-0.5-0.9-1-1.8-0.6-0.8-1.4-1.5-0.7-0.8-1.6-1.3-0.9-0.6-1.9-1-1-0.4-2-0.6-1-0.2-2.1-0.2z"/>
	<g>
		<g>
			<g>
				<path class="s2" d="m82.8 381.4l25.5-23 17.5 19.2-2.8 2.6-14.4-15.8-8.2 7.3 13.4 14.8-2.8 2.5-13.4-14.7-8.8 8 15 16.6-2.8 2.5z"/>
			</g>
		</g>
	</g>
	<path class="s11" d="m82.8 381.4l25.5-23 17.5 19.2-2.8 2.6-14.4-15.8-8.2 7.4 13.4 14.7-2.8 2.5-13.4-14.7-8.8 8 15 16.6-2.8 2.5z"/>
	<g>
		<g>
			<g>
				<path class="s2" d="m243.7 457.6l0.8-34.3 26 0.6-0.1 3.8-21.4-0.5-0.2 11 19.9 0.5-0.1 3.7-19.9-0.4-0.3 11.9 22.4 0.5-0.1 3.8z"/>
			</g>
		</g>
	</g>
	<g id="Clip-Path" clip-path="url(#cp2)">
		<g>
			<path class="s11" d="m243.7 457.6l0.8-34.3 26 0.6-0.1 3.8-21.4-0.5-0.2 11 19.9 0.5-0.1 3.7-19.9-0.4-0.3 11.9 22.4 0.6-0.1 3.7z"/>
		</g>
	</g>
	<g>
		<g>
			<g>
				<path class="s2" d="m174.8 445.7l10.1-20.6q1.7-3.4 3.4-6.5-3 3.4-4.9 5.2l-18.3 17.1-2.9-1.4 2.2-25 0.6-4.3 0.4-2.8-1.1 2.5-1.9 4.2-10.1 20.6-3.7-1.9 15.1-30.8 5.5 2.7-2.3 25.4q-0.2 1.5-0.5 3.2-0.3 1.6-0.5 2.3 0.6-0.7 2-2.2 1.5-1.6 1.9-1.9l18.5-17.5 5.4 2.7-15.1 30.8z"/>
			</g>
		</g>
	</g>
	<path class="s11" d="m174.8 445.6l10.1-20.5q1.6-3.4 3.4-6.5-3 3.4-4.9 5.2l-18.3 17.1-2.9-1.4 2.2-25 0.6-4.3 0.4-2.7-1.1 2.4-1.9 4.2-10.1 20.6-3.7-1.9 15.1-30.8 5.4 2.7-2.2 25.4q-0.2 1.5-0.5 3.2-0.3 1.6-0.5 2.4 0.6-0.8 2-2.3 1.5-1.6 1.9-1.9l18.5-17.5 5.4 2.6-15.1 30.9z"/>
	<g>
		<g>
			<g>
				<path class="s2" d="m329.6 411.8q-4.8 2.9-5.6 7.7-0.9 4.8 2.5 10.2 3.2 5.4 8 7 4.8 1.5 9.7-1.4 6.1-3.7 5.5-11.7l4.3-0.3q0.5 4.9-1.6 8.8-2.1 4-6.4 6.6-4.5 2.7-8.8 2.8-4.4 0.1-8.2-2.3-3.8-2.4-6.6-7-4.2-7.1-2.9-13.3 1.4-6.3 8.1-10.4 4.7-2.8 9-2.9 4.2 0 7.9 2.7l-3 3.5q-2.6-2-5.7-1.9-3 0-6.2 1.9z"/>
			</g>
		</g>
	</g>
	<path class="s11" d="m329.6 411.8q-4.8 2.9-5.7 7.7-0.8 4.8 2.5 10.2 3.3 5.4 8.1 7 4.8 1.5 9.7-1.4 6.1-3.7 5.5-11.7l4.3-0.3q0.5 4.9-1.6 8.8-2.1 4-6.4 6.6-4.5 2.7-8.8 2.8-4.4 0.1-8.2-2.3-3.8-2.4-6.6-7-4.3-7.1-2.9-13.3 1.4-6.3 8.1-10.4 4.7-2.8 9-2.9 4.2-0.1 7.9 2.7l-3 3.5q-2.6-2-5.7-1.9-3.1 0-6.2 1.9z"/>
	<g>
		<g>
			<g>
				<path class="s2" d="m422.5 377.1l-10.4-2.9-9.4 12.6 5.7 9.1-2.9 3.9-19.1-31.8 3.1-4.2 35.8 9.5zm-31.7-9l0.4 0.6q1.3 1.7 3.1 4.5l6.4 10.3 7.7-10.3-11.7-3.3q-1.8-0.4-3.9-1.1z"/>
			</g>
		</g>
	</g>
	<path class="s11" d="m422.5 377.1l-10.4-2.9-9.4 12.6 5.7 9.1-2.9 3.9-19.1-31.8 3.2-4.2 35.7 9.5zm-31.7-9l0.4 0.6q1.3 1.7 3.1 4.5l6.4 10.3 7.7-10.3-11.7-3.3q-1.8-0.4-3.9-1.1z"/>
	<path class="s2" d="m219.7 438.2q0 0.5-0.1 1.1-0.1 0.5-0.3 1.1-0.2 0.5-0.5 0.9-0.4 0.5-0.7 0.9-0.4 0.4-0.9 0.7-0.5 0.3-1 0.5-0.5 0.2-1 0.3-0.6 0.1-1.1 0.1-0.6 0-1.1-0.1-0.6-0.1-1.1-0.3-0.5-0.2-1-0.5-0.4-0.3-0.8-0.7-0.4-0.4-0.7-0.9-0.4-0.4-0.6-0.9-0.2-0.6-0.3-1.1-0.1-0.5-0.1-1.1 0-0.6 0.1-1.1 0.1-0.6 0.3-1.1 0.2-0.5 0.6-0.9 0.3-0.5 0.7-0.9 0.3-0.4 0.8-0.7 0.5-0.3 1-0.5 0.5-0.2 1-0.3 0.6-0.2 1.2-0.2 0.5 0 1.1 0.2 0.5 0.1 1 0.3 0.5 0.2 1 0.5 0.5 0.3 0.9 0.7 0.3 0.4 0.7 0.9 0.3 0.4 0.5 0.9 0.2 0.5 0.3 1.1 0.1 0.5 0.1 1.1z"/>
	<path class="s2" d="m138.5 402.8q0 0.5-0.1 1.1-0.1 0.5-0.4 1-0.2 0.5-0.5 1-0.3 0.5-0.7 0.9-0.4 0.4-0.8 0.7-0.5 0.3-1 0.5-0.5 0.2-1.1 0.3-0.5 0.1-1.1 0.1-0.5 0-1.1-0.1-0.5-0.1-1-0.3-0.6-0.2-1-0.5-0.5-0.3-0.9-0.7-0.4-0.4-0.7-0.9-0.3-0.5-0.5-1-0.2-0.5-0.3-1-0.1-0.6-0.1-1.1 0-0.6 0.1-1.1 0.1-0.6 0.3-1.1 0.2-0.5 0.5-1 0.3-0.4 0.7-0.8 0.4-0.4 0.9-0.7 0.4-0.3 1-0.5 0.5-0.3 1-0.4 0.6-0.1 1.1-0.1 0.6 0 1.1 0.1 0.6 0.1 1.1 0.3 0.5 0.3 1 0.6 0.4 0.3 0.8 0.7 0.4 0.4 0.7 0.8 0.3 0.5 0.5 1 0.3 0.5 0.4 1.1 0.1 0.5 0.1 1.1z"/>
	<path class="s2" d="m299.6 439.3q0 0.5-0.1 1.1-0.1 0.5-0.4 1-0.2 0.5-0.5 1-0.3 0.5-0.7 0.9-0.4 0.4-0.8 0.7-0.5 0.3-1 0.5-0.5 0.2-1.1 0.3-0.5 0.1-1.1 0.1-0.5 0-1.1-0.1-0.5-0.1-1-0.3-0.6-0.2-1-0.5-0.5-0.3-0.9-0.7-0.4-0.4-0.7-0.9-0.3-0.5-0.5-1-0.2-0.5-0.3-1-0.1-0.6-0.1-1.1 0-0.6 0.1-1.1 0.1-0.6 0.3-1.1 0.2-0.5 0.5-1 0.3-0.4 0.7-0.8 0.4-0.4 0.9-0.7 0.4-0.3 1-0.5 0.5-0.3 1-0.4 0.6-0.1 1.1-0.1 0.6 0 1.1 0.1 0.6 0.1 1.1 0.4 0.5 0.2 1 0.5 0.4 0.3 0.8 0.7 0.4 0.4 0.7 0.8 0.3 0.5 0.5 1 0.3 0.5 0.4 1.1 0.1 0.5 0.1 1.1z"/>
	<path class="s2" d="m379.2 405.3q0 0.6-0.1 1.1-0.1 0.6-0.3 1.1-0.3 0.5-0.6 1-0.3 0.4-0.7 0.8-0.4 0.4-0.8 0.7-0.5 0.3-1 0.5-0.5 0.3-1.1 0.4-0.5 0.1-1.1 0.1-0.5 0-1.1-0.1-0.5-0.1-1-0.4-0.5-0.2-1-0.5-0.5-0.3-0.9-0.7-0.4-0.4-0.7-0.8-0.3-0.5-0.5-1-0.2-0.5-0.3-1.1-0.1-0.5-0.1-1.1 0-0.5 0.1-1.1 0.1-0.5 0.3-1 0.2-0.5 0.5-1 0.3-0.5 0.7-0.9 0.4-0.4 0.9-0.7 0.5-0.3 1-0.5 0.5-0.2 1-0.3 0.6-0.1 1.1-0.1 0.6 0 1.1 0.1 0.6 0.1 1.1 0.3 0.5 0.2 1 0.5 0.4 0.3 0.8 0.7 0.4 0.4 0.7 0.9 0.3 0.4 0.6 1 0.2 0.5 0.3 1 0.1 0.6 0.1 1.1z"/>
</svg>